#N canvas 46 -1332 1564 571 12;
#N canvas 363 151 1403 1047 engine 0;
#N canvas 1291 89 354 505 generateHanningWindow 0;
#X obj 42 35 loadbang;
#X obj 42 76 t b b;
#X msg 42 117 256;
#X msg 137 138 0;
#X obj 42 176 until;
#X obj 42 217 f;
#X obj 96 216 + 1;
#X obj 42 258 t f f, f 23;
#X obj 42 299 expr ($f1-128) / 64;
#X obj 42 340 expr exp(-$f1*$f1);
#X obj 42 394 tabwrite \$0-window, f 23;
#X obj 125 35 r restoreHanningWindow;
#X connect 0 0 1 0;
#X connect 1 0 2 0;
#X connect 1 1 3 0;
#X connect 2 0 4 0;
#X connect 3 0 5 1;
#X connect 4 0 5 0;
#X connect 5 0 6 0;
#X connect 5 0 7 0;
#X connect 6 0 5 1;
#X connect 7 0 8 0;
#X connect 7 1 10 1;
#X connect 8 0 9 0;
#X connect 9 0 10 0;
#X connect 11 0 1 0;
#X restore 32 32 pd generateHanningWindow;
#X obj 160 199 phasor~;
#X obj 160 241 *~ 256;
#X obj 160 297 +~;
#X obj 160 364 *~;
#X obj 160 570 *~;
#X obj 163 825 dac~;
#X obj 289 45 * 96000;
#X msg 355 180 \$1 100;
#X obj 355 208 line~;
#X obj 268 262 samphold~;
#X obj 355 153 +;
#X obj 452 54 t b b;
#X obj 658 90 tgl 19 0 empty empty empty 0 -10 0 12 #fcfcfc #000000 #000000 0 1;
#X obj 658 117 metro 10;
#X obj 31 643 vuProcessor;
#X obj 31 675 outlet;
#X obj 105 674 outlet;
#X obj 226 567 r \$0-reverb;
#X obj 208 618 *~;
#X floatatom 242 652 4 0 120 0 - - - 0;
#X floatatom 276 676 4 0 100 0 - reverbTime - 0;
#X floatatom 310 700 6 0 0 0 - - - 0;
#X floatatom 345 726 4 0 100 0 - - - 0;
#X text 358 700 crossover frequency \, Hz.;
#X obj 208 755 rev2~ 100 90 3000 20;
#X text 305 797 The creation arguments (output level \, liveness \, crossover frequency \, HF damping) may also be supplied in four inlets as shown. The "liveness" (actually the internal feedback percentage) should be 100 for infinite reverb \, 90 for longish \, and 80 for short. The crossover frequency and HF damping work together: at frequencies above crossover \, the feedback is diminished by the "damping" as a percentage. So zero HF damping means equal reverb time at all frequencies \, and 100% damping means almost nothing above the crossover frequency gets through., f 50;
#X text 309 676 liveness/feedback (in percent: 0-100;
#X text 377 725 High Frequency damping (in percent: 0-100);
#X text 276 651 output level dB;
#X obj 729 75 t b f;
#X obj 729 19 r \$0-randomSpeed;
#X msg 659 63 1;
#X obj 502 130 r \$0-randomWidth;
#X obj 227 532 r \$0-volume;
#X obj 289 16 r \$0-position;
#X obj 160 123 r \$0-pitch;
#X obj 304 323 tabread~ \$0-window;
#X obj 160 325 tabread4~ \$0-sample;
#X obj 659 22 loadbang;
#X floatatom 533 186 5 0 0 0 - - - 0;
#X floatatom 761 121 5 0 0 0 - - - 0;
#X msg 751 618 open -bytes 3 \$1;
#X msg 909 667 start;
#X msg 962 667 stop;
#X obj 955 529 bng 15 250 50 0 empty empty empty 17 7 0 10 #fcfcfc #000000 #000000;
#X obj 751 588 savepanel;
#X obj 1004 529 tgl 15 0 empty empty empty 17 7 0 10 #fc0400 #000000 #000000 0 1;
#X obj 909 562 select 1;
#X obj 751 822 writesf~ 2;
#X text 825 524 select filename ->;
#X text 983 514 record;
#X obj 160 499 *~;
#X obj 291 354 r \$0-force;
#X obj 205 480 line~;
#X msg 291 440 \$1 10;
#X obj 289 100 line;
#X msg 289 75 \$1 100;
#X obj 494 15 r sampleLength;
#X obj 160 527 hip~ 20;
#X obj 496 335 *~ 256;
#X obj 496 388 +~;
#X obj 496 460 *~;
#X obj 633 353 samphold~;
#X obj 651 419 tabread~ \$0-window;
#X obj 496 419 tabread4~ \$0-sample;
#X obj 496 272 +~ 0.5;
#X obj 496 299 wrap~;
#X obj 160 468 +~;
#X obj 484 159 * 0;
#X obj 484 91 random 96000;
#X connect 1 0 2 0;
#X connect 1 0 10 1;
#X connect 1 0 66 0;
#X connect 2 0 3 0;
#X connect 2 0 37 0;
#X connect 3 0 38 0;
#X connect 4 0 68 0;
#X connect 5 0 6 0;
#X connect 5 0 6 1;
#X connect 5 0 15 0;
#X connect 5 0 19 0;
#X connect 5 0 49 0;
#X connect 5 0 49 1;
#X connect 7 0 57 0;
#X connect 8 0 9 0;
#X connect 9 0 10 0;
#X connect 9 0 63 0;
#X connect 10 0 3 1;
#X connect 11 0 8 0;
#X connect 12 0 11 0;
#X connect 12 1 70 0;
#X connect 13 0 14 0;
#X connect 14 0 12 0;
#X connect 15 0 16 0;
#X connect 15 1 17 0;
#X connect 18 0 19 1;
#X connect 19 0 25 0;
#X connect 20 0 25 1;
#X connect 21 0 25 2;
#X connect 22 0 25 3;
#X connect 23 0 25 4;
#X connect 25 0 6 0;
#X connect 25 0 49 0;
#X connect 25 1 6 1;
#X connect 25 1 49 1;
#X connect 25 2 6 0;
#X connect 25 2 49 0;
#X connect 25 3 6 1;
#X connect 25 3 49 1;
#X connect 30 0 32 0;
#X connect 30 1 14 1;
#X connect 30 1 41 0;
#X connect 31 0 30 0;
#X connect 32 0 13 0;
#X connect 33 0 40 0;
#X connect 33 0 69 1;
#X connect 34 0 5 1;
#X connect 35 0 7 0;
#X connect 36 0 1 0;
#X connect 37 0 4 1;
#X connect 38 0 4 0;
#X connect 39 0 32 0;
#X connect 42 0 49 0;
#X connect 43 0 49 0;
#X connect 44 0 49 0;
#X connect 45 0 46 0;
#X connect 46 0 42 0;
#X connect 47 0 48 0;
#X connect 48 0 43 0;
#X connect 48 1 44 0;
#X connect 52 0 59 0;
#X connect 53 0 55 0;
#X connect 54 0 52 1;
#X connect 55 0 54 0;
#X connect 56 0 11 0;
#X connect 57 0 56 0;
#X connect 58 0 7 1;
#X connect 58 0 70 1;
#X connect 59 0 5 0;
#X connect 60 0 61 0;
#X connect 60 0 64 0;
#X connect 61 0 65 0;
#X connect 62 0 68 1;
#X connect 63 0 61 1;
#X connect 64 0 62 1;
#X connect 65 0 62 0;
#X connect 66 0 67 0;
#X connect 67 0 60 0;
#X connect 67 0 63 1;
#X connect 68 0 52 0;
#X connect 69 0 11 1;
#X connect 70 0 69 0;
#X coords 0 -1 1 1 250 50 1 800 500;
#X restore 1197 186 pd engine;
#N canvas 0 22 450 278 (subpatch) 0;
#X array \$0-sample 96000 float 2;
#X coords 0 1 96000 -1 500 140 1 0 0;
#X restore 379 36 graph;
#N canvas 0 22 450 278 (subpatch) 0;
#X array \$0-window 256 float 2;
#X coords 0 1 256 -1 200 140 1 0 0;
#X restore 890 36 graph;
#X obj 569 283 vsl 19 162 0 1 0 0 \$0-volume \$0-midivol volume 0 -9 0 12 #ff0400 #000000 #000000 0 1;
#X obj 294 186 nbx 5 17 -1e+37 1e+37 0 1 \$0-pitch \$0-midipitch pitch 0 -10 0 12 #fcfcfc #000000 #000000 163 256;
#X obj 382 185 hsl 496 19 0 1 0 0 \$0-position \$0-midipos position -2 30 0 12 #c6feff #000000 #000000 0 1;
#X obj 1198 261 vu 19 200 empty empty -1 -10 0 12 #404040 #000000 1 0;
#X obj 6 7 cnv 19 270 500 empty empty Input 20 12 0 12 #e1ffdc #404040 0;
#X obj 54 95 adc~;
#X obj 100 52 bng 20 250 50 0 empty empty record\ mic 0 -6 0 8 #fc1400 #000000 #000000;
#X msg 118 83 stop;
#X obj 55 252 vu 19 200 empty empty -1 -10 0 12 #404040 #000000 1 0;
#X obj 54 188 vuProcessor;
#X obj 662 282 vsl 19 162 0 1 0 0 \$0-reverb \$0-midirev reverb 0 -9 0 12 #c7c6ff #000000 #000000 0 1;
#N canvas 580 -578 450 300 midi 0;
#X obj 26 45 ctlin 16;
#X obj 92 45 ctlin 17;
#X obj 26 82 / 127;
#X obj 26 260 s \$0-midipos;
#X obj 158 82 / 127;
#X obj 227 82 / 127;
#X obj 92 220 s \$0-midipitch;
#X obj 158 189 s \$0-midivol;
#X obj 227 164 s \$0-midirev;
#X obj 92 82 * 2;
#X obj 158 45 ctlin 19;
#X obj 227 45 ctlin 18;
#X obj 310 82 / 127;
#X obj 310 45 ctlin 20;
#X obj 310 113 s \$0-force;
#X obj 368 83 tgl 19 0 empty empty empty 0 -10 0 12 #fcfcfc #000000 #000000 0 1;
#X connect 0 0 2 0;
#X connect 1 0 9 0;
#X connect 2 0 3 0;
#X connect 4 0 7 0;
#X connect 5 0 8 0;
#X connect 9 0 6 0;
#X connect 10 0 4 0;
#X connect 11 0 5 0;
#X connect 12 0 14 0;
#X connect 13 0 12 0;
#X connect 15 0 14 0;
#X restore 1227 25 pd midi;
#X obj 311 275 vsl 19 162 1000 1 0 1 \$0-randomSpeed empty random\ speed 0 -9 0 12 #feffc6 #000000 #000000 10800 1;
#X obj 353 297 vsl 19 162 0 1 0 1 \$0-randomWidth empty random\ width 0 -9 0 12 #feffc6 #000000 #000000 1400 1;
#N canvas 416 -595 666 392 input 0;
#X msg 535 292 \; \$1-sample print;
#X obj 535 257 f \$0;
#X obj 535 227 bng 19 250 50 0 empty empty empty 0 -10 0 12 #fcfcfc #000000 #000000;
#X obj 176 130 f \$0;
#X obj 14 15 inlet~;
#X obj 14 226 tabwrite~ \$0-sample;
#X obj 107 12 inlet;
#X obj 199 11 inlet;
#X obj 106 51 t b b;
#X obj 383 217 soundfiler;
#X msg 383 187 read -resize \$1 \$2-sample;
#X obj 437 129 f \$0;
#X obj 383 69 openpanel;
#X obj 383 34 bng 19 250 50 0 empty empty empty 0 -10 0 12 #fcfcfc #000000 #000000;
#X obj 383 106 t s b;
#X obj 383 156 pack s f;
#X obj 383 253 s sampleLength;
#X msg 282 201 96000;
#X obj 176 156 t f b;
#X obj 325 13 inlet;
#X msg 176 294 \; \$1-sample const 0 \; \$1-sample resize 96000;
#X text 449 319 print some info on pd window;
#X text 424 27 load a soundfile;
#X text 20 349 record 2 seconds from input;
#X connect 1 0 0 0;
#X connect 2 0 1 0;
#X connect 3 0 18 0;
#X connect 4 0 5 0;
#X connect 6 0 8 0;
#X connect 7 0 5 0;
#X connect 8 0 5 0;
#X connect 8 1 3 0;
#X connect 9 0 16 0;
#X connect 10 0 9 0;
#X connect 11 0 15 1;
#X connect 12 0 14 0;
#X connect 13 0 12 0;
#X connect 14 0 15 0;
#X connect 14 1 11 0;
#X connect 15 0 10 0;
#X connect 17 0 16 0;
#X connect 18 0 20 0;
#X connect 18 1 17 0;
#X connect 19 0 12 0;
#X restore 83 134 pd input;
#X obj 185 55 bng 19 250 50 0 empty empty load\ soundfile 0 -10 0 8 #faff00 #000000 #000000;
#X obj 910 227 s restoreHanningWindow;
#X obj 910 194 bng 19 250 50 0 empty empty empty 0 -10 0 12 #fcfcfc #000000 #000000;
#X obj 747 283 vsl 19 162 0.1 95 0 1 reverbTime empty empty 0 -9 0 12 #fcfcfc #000000 #000000 14500 1;
#X connect 0 0 6 0;
#X connect 0 1 6 1;
#X connect 8 0 12 0;
#X connect 8 0 17 0;
#X connect 9 0 17 1;
#X connect 10 0 17 2;
#X connect 12 0 11 0;
#X connect 12 1 11 1;
#X connect 18 0 17 3;
#X connect 20 0 19 0;
